<svg xmlns="http://www.w3.org/2000/svg" xmlns:xlink="http://www.w3.org/1999/xlink" width="517" zoomAndPan="magnify" viewBox="0 0 387.75 179.999997" height="240" preserveAspectRatio="xMidYMid meet" version="1.0"><defs><g/><clipPath id="259c6c94bb"><path d="M 28 26.320312 L 54 26.320312 L 54 53 L 28 53 Z M 28 26.320312 " clip-rule="nonzero"/></clipPath><clipPath id="b936763c9b"><path d="M 0 26.320312 L 27 26.320312 L 27 81 L 0 81 Z M 0 26.320312 " clip-rule="nonzero"/></clipPath><clipPath id="996c8fa4e5"><path d="M 28 26.320312 L 109 26.320312 L 109 81 L 28 81 Z M 28 26.320312 " clip-rule="nonzero"/></clipPath><clipPath id="2451b1797d"><path d="M 0.0742188 12 L 35 12 L 35 51 L 0.0742188 51 Z M 0.0742188 12 " clip-rule="nonzero"/></clipPath><clipPath id="60d6a298ca"><rect x="0" width="154" y="0" height="64"/></clipPath><clipPath id="7bd57a25a4"><rect x="0" width="238" y="0" height="110"/></clipPath></defs><path fill="#a6a6a6" d="M 53.601562 125.039062 C 52.285156 130.601562 46.917969 134.894531 41.210938 134.992188 C 35.503906 135.066406 29.988281 130.894531 28.527344 125.378906 C 27.867188 122.890625 27.941406 120.257812 27.304688 117.769531 C 26.136719 113.28125 22.453125 109.523438 17.988281 108.304688 C 15.378906 107.574219 12.574219 107.671875 9.960938 106.9375 C 4.230469 105.304688 0.0585938 99.253906 0.570312 93.304688 C 1.082031 87.351562 6.230469 82.128906 12.183594 81.519531 C 18.132812 80.886719 24.234375 84.960938 25.964844 90.691406 C 26.71875 93.230469 26.695312 95.984375 27.402344 98.546875 C 29.039062 104.574219 35.0625 109.0625 41.285156 108.964844 C 47.503906 108.867188 53.382812 104.15625 54.820312 98.085938 C 55.359375 95.816406 55.335938 93.449219 55.917969 91.179688 C 57.457031 85.300781 63.578125 80.984375 69.652344 81.546875 C 75.703125 82.082031 80.945312 87.425781 81.433594 93.472656 C 81.898438 99.523438 77.507812 105.597656 71.605469 107.0625 C 69.359375 107.621094 67.019531 107.574219 64.75 108.109375 C 59.796875 109.28125 55.675781 113.453125 54.554688 118.402344 C 54.066406 120.597656 54.113281 122.867188 53.601562 125.039062 " fill-opacity="1" fill-rule="nonzero"/><g clip-path="url(#259c6c94bb)"><path fill="#a6a6a6" d="M 28.257812 37.078125 C 29.402344 31.464844 34.648438 26.976562 40.332031 26.683594 C 46.039062 26.390625 51.699219 30.320312 53.429688 35.757812 C 55.140625 41.222656 52.773438 47.6875 47.917969 50.710938 C 43.089844 53.738281 36.234375 53.054688 32.085938 49.152344 C 28.867188 46.125 27.378906 41.394531 28.257812 37.078125 " fill-opacity="1" fill-rule="nonzero"/></g><path fill="#a6a6a6" d="M 99.777344 79.496094 C 97.316406 80.300781 94.605469 80.324219 92.121094 79.570312 C 90.632812 79.128906 89.242188 78.421875 88.019531 77.496094 C 83.386719 74.03125 81.605469 67.273438 83.875 61.957031 C 86.167969 56.664062 92.3125 53.324219 98 54.273438 C 103.707031 55.25 108.414062 60.421875 108.804688 66.203125 C 109.21875 71.957031 105.292969 77.738281 99.777344 79.496094 " fill-opacity="1" fill-rule="nonzero"/><path fill="#a6a6a6" d="M 43.601562 107.257812 C 37.257812 108.523438 30.332031 104.304688 28.527344 98.109375 C 27.085938 93.132812 28.988281 87.328125 33.113281 84.15625 C 37.234375 81.007812 43.332031 80.667969 47.773438 83.375 C 52.210938 86.058594 54.75 91.621094 53.847656 96.742188 C 52.945312 101.863281 48.699219 106.230469 43.601562 107.257812 " fill-opacity="1" fill-rule="nonzero"/><path fill="#a6a6a6" d="M 101.582031 113.425781 C 104.242188 115.039062 106.316406 117.625 107.265625 120.574219 C 109.339844 126.894531 105.65625 134.503906 99.4375 136.820312 C 93.191406 139.113281 85.433594 135.746094 82.875 129.625 C 80.3125 123.476562 83.386719 115.597656 89.410156 112.792969 C 93.242188 111.011719 97.949219 111.257812 101.582031 113.425781 " fill-opacity="1" fill-rule="nonzero"/><path fill="#a6a6a6" d="M 81.386719 122.550781 C 81.09375 127.867188 77.214844 132.796875 72.09375 134.308594 C 66.992188 135.820312 61.042969 133.820312 57.894531 129.527344 C 54.625 125.039062 54.675781 118.453125 57.992188 114.011719 C 61.308594 109.597656 67.652344 107.71875 72.847656 109.597656 C 78.070312 111.5 81.703125 117.011719 81.386719 122.550781 " fill-opacity="1" fill-rule="nonzero"/><path fill="#a6a6a6" d="M 9.644531 109.550781 C 13.035156 108.453125 16.867188 108.839844 19.964844 110.574219 C 23.0625 112.304688 25.402344 115.355469 26.257812 118.820312 C 27.476562 123.695312 25.523438 129.234375 21.523438 132.285156 C 17.523438 135.355469 11.671875 135.773438 7.277344 133.308594 C 2.886719 130.84375 0.15625 125.671875 0.667969 120.648438 C 1.179688 115.621094 4.863281 111.085938 9.644531 109.550781 " fill-opacity="1" fill-rule="nonzero"/><g clip-path="url(#b936763c9b)"><path fill="#a6a6a6" d="M 0.449219 45.152344 C 0.425781 41.273438 0.449219 37.246094 2.15625 33.757812 C 4.351562 29.246094 9.472656 26.320312 14.5 26.683594 C 19.523438 27.027344 24.160156 30.636719 25.792969 35.394531 C 26.71875 38.101562 26.71875 41.027344 26.71875 43.882812 C 26.71875 50.347656 26.71875 56.808594 26.71875 63.300781 C 26.71875 65.859375 26.71875 68.46875 25.964844 70.933594 C 24.402344 76.128906 19.257812 80.058594 13.839844 80.179688 C 8.402344 80.277344 3.082031 76.570312 1.398438 71.398438 C 0.570312 68.886719 0.546875 66.175781 0.523438 63.542969 C 0.496094 57.421875 0.472656 51.296875 0.449219 45.152344 " fill-opacity="1" fill-rule="nonzero"/></g><path fill="#a6a6a6" d="M 82.265625 71.421875 C 83.558594 76.226562 87.753906 80.105469 92.632812 81.082031 C 94.582031 81.472656 96.582031 81.449219 98.535156 81.839844 C 104.488281 83.082031 109.121094 89.035156 108.851562 95.109375 C 108.585938 101.207031 103.460938 106.71875 97.414062 107.449219 C 91.363281 108.183594 85.09375 104.011719 83.386719 98.15625 C 82.628906 95.472656 82.726562 92.570312 81.945312 89.886719 C 80.726562 85.570312 77.09375 82.007812 72.75 80.886719 C 70.238281 80.203125 67.578125 80.300781 65.089844 79.644531 C 59.261719 78.105469 54.96875 72.054688 55.457031 66.054688 C 55.945312 60.054688 61.117188 54.761719 67.117188 54.152344 C 73.117188 53.566406 79.238281 57.738281 80.898438 63.542969 C 81.628906 66.105469 81.558594 68.835938 82.265625 71.421875 " fill-opacity="1" fill-rule="nonzero"/><g clip-path="url(#996c8fa4e5)"><path fill="#a6a6a6" d="M 54.457031 44.785156 C 55.796875 40.757812 55.164062 36.101562 57.335938 32.464844 C 58.917969 29.808594 61.824219 28.125 64.824219 27.34375 C 67.800781 26.5625 70.945312 26.5625 74.042969 26.5625 C 80.191406 26.5625 86.339844 26.585938 92.484375 26.585938 C 94.828125 26.585938 97.21875 26.613281 99.460938 27.246094 C 104.828125 28.734375 108.851562 34.003906 108.902344 39.5625 C 108.949219 45.125 105.023438 50.46875 99.707031 52.078125 C 97.191406 52.808594 94.535156 52.808594 91.949219 52.761719 C 85.800781 52.710938 79.679688 52.640625 73.554688 52.566406 C 69.945312 52.542969 66.238281 52.515625 62.894531 53.859375 C 58.726562 55.519531 55.480469 59.324219 54.527344 63.691406 C 54.042969 65.835938 54.089844 68.054688 53.578125 70.179688 C 52.210938 76.007812 46.355469 80.398438 40.382812 80.128906 C 34.40625 79.863281 28.988281 74.933594 28.136719 69.007812 C 27.304688 63.105469 31.136719 56.859375 36.796875 54.90625 C 39.867188 53.859375 43.234375 54.003906 46.308594 52.957031 C 50.089844 51.664062 53.1875 48.542969 54.457031 44.785156 " fill-opacity="1" fill-rule="nonzero"/></g><g transform="matrix(1, 0, 0, 1, 134, 12)"><g clip-path="url(#60d6a298ca)"><g clip-path="url(#2451b1797d)"><g fill="#a6a6a6" fill-opacity="1"><g transform="translate(0.154563, 50.344586)"><g><path d="M 0.546875 0 L 16.90625 -37.359375 L 17.734375 -37.359375 L 34.109375 0 L 28.09375 0 L 23.96875 -9.921875 L 7.609375 -9.921875 L 3.53125 0 Z M 8.421875 -12.015625 L 23.078125 -12.015625 L 15.8125 -29.859375 Z M 8.421875 -12.015625 "/></g></g></g></g><g fill="#a6a6a6" fill-opacity="1"><g transform="translate(31.826838, 50.344586)"><g><path d="M 10.359375 -17.40625 L 10.359375 0 L 4.953125 0 L 4.953125 -36.46875 L 16.859375 -36.46875 C 20.566406 -36.46875 23.601562 -35.640625 25.96875 -33.984375 C 28.34375 -32.335938 29.53125 -30.164062 29.53125 -27.46875 C 29.53125 -24.769531 28.582031 -22.640625 26.6875 -21.078125 C 24.800781 -19.515625 22.238281 -18.4375 19 -17.84375 L 33.765625 0 L 27.375 0.765625 L 14.59375 -17.40625 Z M 10.359375 -19.0625 L 13.890625 -19.0625 C 20.492188 -19.0625 23.796875 -21.671875 23.796875 -26.890625 C 23.796875 -27.765625 23.578125 -28.753906 23.140625 -29.859375 C 22.296875 -32.171875 20.492188 -33.695312 17.734375 -34.4375 C 15.242188 -34.4375 12.785156 -34.125 10.359375 -33.5 Z M 10.359375 -19.0625 "/></g></g></g><g fill="#a6a6a6" fill-opacity="1"><g transform="translate(63.994877, 50.344586)"><g><path d="M 21.765625 0.65625 C 16.066406 0.65625 11.269531 -0.882812 7.375 -3.96875 C 3.488281 -7.050781 1.546875 -11.476562 1.546875 -17.25 C 1.546875 -20.625 2.1875 -23.632812 3.46875 -26.28125 C 4.757812 -28.925781 6.453125 -31 8.546875 -32.5 C 12.765625 -35.59375 17.5 -37.140625 22.75 -37.140625 C 25.800781 -37.140625 28.976562 -36.585938 32.28125 -35.484375 L 31.734375 -31.734375 C 30.003906 -32.460938 28.664062 -33.015625 27.71875 -33.390625 C 24.957031 -34.378906 22.179688 -34.875 19.390625 -34.875 C 15.535156 -33.988281 12.566406 -32.078125 10.484375 -29.140625 C 8.410156 -26.203125 7.375 -22.53125 7.375 -18.125 C 7.375 -12.726562 8.785156 -8.566406 11.609375 -5.640625 C 14.441406 -2.722656 18.171875 -1.265625 22.796875 -1.265625 C 27.429688 -1.265625 30.890625 -2.257812 33.171875 -4.25 L 33.171875 -1.21875 C 30.003906 0.03125 26.203125 0.65625 21.765625 0.65625 Z M 21.765625 0.65625 "/></g></g></g><g fill="#a6a6a6" fill-opacity="1"><g transform="translate(95.8324, 50.344586)"><g/></g></g><g fill="#a6a6a6" fill-opacity="1"><g transform="translate(106.627758, 50.344586)"><g><path d="M 14.765625 -25.5625 C 17.992188 -25.5625 20.664062 -24.457031 22.78125 -22.25 C 24.894531 -20.050781 25.953125 -17.023438 25.953125 -13.171875 C 25.953125 -10.703125 25.53125 -8.53125 24.6875 -6.65625 C 23.84375 -4.789062 22.738281 -3.34375 21.375 -2.3125 C 18.769531 -0.332031 15.859375 0.65625 12.640625 0.65625 C 9.429688 0.65625 6.769531 -0.441406 4.65625 -2.640625 C 2.539062 -4.847656 1.484375 -7.878906 1.484375 -11.734375 C 1.484375 -14.191406 1.894531 -16.359375 2.71875 -18.234375 C 3.550781 -20.109375 4.644531 -21.5625 6 -22.59375 C 8.613281 -24.570312 11.535156 -25.5625 14.765625 -25.5625 Z M 13.65625 -1.21875 C 15.28125 -1.21875 16.660156 -1.835938 17.796875 -3.078125 C 19.847656 -5.285156 20.875 -8.21875 20.875 -11.875 C 20.875 -15.53125 20.25 -18.375 19 -20.40625 C 17.757812 -22.445312 15.722656 -23.46875 12.890625 -23.46875 C 10.796875 -22.664062 9.207031 -21.242188 8.125 -19.203125 C 7.039062 -17.160156 6.5 -14.695312 6.5 -11.8125 C 6.5 -8.9375 7.085938 -6.453125 8.265625 -4.359375 C 9.441406 -2.265625 11.238281 -1.21875 13.65625 -1.21875 Z M 13.65625 -1.21875 "/></g></g></g><g fill="#a6a6a6" fill-opacity="1"><g transform="translate(131.194166, 50.344586)"><g><path d="M 16.96875 -24.90625 L 16.96875 -22.921875 L 10.296875 -22.921875 L 10.296875 0 L 5.671875 0 L 5.671875 -22.921875 L 1.15625 -23.796875 L 1.15625 -24.90625 L 5.734375 -24.90625 C 5.953125 -28.800781 6.988281 -31.976562 8.84375 -34.4375 C 10.695312 -36.894531 13.203125 -38.125 16.359375 -38.125 C 17.390625 -38.125 18.785156 -37.90625 20.546875 -37.46875 L 20 -33.875 C 19.1875 -34.320312 18.144531 -34.707031 16.875 -35.03125 C 15.613281 -35.363281 14.65625 -35.53125 14 -35.53125 C 12.75 -34.90625 11.835938 -33.507812 11.265625 -31.34375 C 10.691406 -29.175781 10.367188 -27.03125 10.296875 -24.90625 Z M 16.96875 -24.90625 "/></g></g></g></g></g><g transform="matrix(1, 0, 0, 1, 126, 50)"><g clip-path="url(#7bd57a25a4)"><g fill="#a6a6a6" fill-opacity="1"><g transform="translate(0.360951, 88.01689)"><g><path d="M 8.40625 0 L 8.40625 -61.828125 L 26.0625 -61.828125 C 33.21875 -61.828125 38.910156 -60.613281 43.140625 -58.1875 C 47.378906 -55.757812 49.5 -52.117188 49.5 -47.265625 C 49.5 -43.835938 48.300781 -40.863281 45.90625 -38.34375 C 43.507812 -35.820312 40.164062 -33.90625 35.875 -32.59375 C 41.539062 -31.539062 45.820312 -29.628906 48.71875 -26.859375 C 51.613281 -24.085938 53.0625 -21.050781 53.0625 -17.75 C 53.0625 -14.445312 52.21875 -11.628906 50.53125 -9.296875 C 48.851562 -6.960938 46.707031 -5.171875 44.09375 -3.921875 C 38.789062 -1.304688 33.367188 0 27.828125 0 Z M 17.46875 -33.53125 L 24.1875 -33.53125 C 29.851562 -33.53125 33.914062 -34.789062 36.375 -37.3125 C 38.84375 -39.832031 40.078125 -42.992188 40.078125 -46.796875 C 40.078125 -49.347656 39.21875 -51.664062 37.5 -53.75 C 35.789062 -55.84375 33.160156 -57.414062 29.609375 -58.46875 C 25.378906 -58.46875 21.332031 -57.847656 17.46875 -56.609375 Z M 17.46875 -30.828125 L 17.46875 -4.203125 C 19.457031 -3.578125 22.535156 -3.265625 26.703125 -3.265625 C 30.878906 -3.265625 34.585938 -4.414062 37.828125 -6.71875 C 41.066406 -9.03125 42.6875 -12.238281 42.6875 -16.34375 C 42.6875 -20.457031 40.910156 -23.898438 37.359375 -26.671875 C 33.804688 -29.441406 29.539062 -30.828125 24.5625 -30.828125 Z M 17.46875 -30.828125 "/></g></g></g><g fill="#a6a6a6" fill-opacity="1"><g transform="translate(63.870473, 88.01689)"><g><path d="M 41.375 -14.671875 L 62.015625 -61.828125 L 71.546875 -61.828125 L 75 0 L 65.484375 0 L 62.953125 -53.140625 L 62.578125 -53.140625 L 39.046875 0 L 37.734375 0 L 14.671875 -51 L 14.296875 -51 L 11.765625 0 L 7.65625 0 L 11.109375 -61.828125 L 19.796875 -61.828125 Z M 41.375 -14.671875 "/></g></g></g><g fill="#a6a6a6" fill-opacity="1"><g transform="translate(150.261947, 88.01689)"><g><path d="M 41.375 -14.671875 L 62.015625 -61.828125 L 71.546875 -61.828125 L 75 0 L 65.484375 0 L 62.953125 -53.140625 L 62.578125 -53.140625 L 39.046875 0 L 37.734375 0 L 14.671875 -51 L 14.296875 -51 L 11.765625 0 L 7.65625 0 L 11.109375 -61.828125 L 19.796875 -61.828125 Z M 41.375 -14.671875 "/></g></g></g></g></g></svg>